<svg xmlns="http://www.w3.org/2000/svg" width="20" height="20" viewBox="0 0 20 20"><defs><style>.a{fill:#947dce;}</style></defs><path class="a" d="M-5632-1072a10.011,10.011,0,0,1-10-10,10.012,10.012,0,0,1,10-10,10.012,10.012,0,0,1,10,10A10.011,10.011,0,0,1-5632-1072Zm1.661-13.784h0l-.005.008,0,.005a.263.263,0,0,1-.028.035l-2.047,2.052-1.441,1.444c-.094.094-.188.186-.283.278l-.054.053c-.075.073-.15.147-.224.221l-.522.523-.172.173-1.189,1.192a.243.243,0,0,0-.06.1q-.3.885-.593,1.77l-.154.46-.205.612c-.028.084-.06.169-.091.251l-.007.019a.107.107,0,0,0,.014.018l.008.008.013-.007a.163.163,0,0,1,.031-.015l3.067-1.025a.306.306,0,0,0,.107-.067l2.85-2.847,1.809-1.808c.342-.343.811-.813,1.281-1.28a.115.115,0,0,1,.043-.024l-1.051-1.053-.362-.362Zm1.948-1.71h0l-.01,0-.017.006a.827.827,0,0,0-.461.249c-.292.295-.58.582-.874.874-.068.068-.134.132-.194.19l.432.432,1.7,1.7a.09.09,0,0,0,.017-.014q.372-.37.741-.741l.345-.345a.767.767,0,0,0,.2-.348c.011-.035.02-.074.026-.1v-.2a.193.193,0,0,0-.008-.026l0-.008,0-.008a.76.76,0,0,0-.217-.411l-.511-.512-.1-.095-.413-.414a.766.766,0,0,0-.391-.209l-.028-.007-.032-.008h-.2Z" transform="translate(5642 1092)"/></svg>