<svg xmlns="http://www.w3.org/2000/svg" xmlns:xlink="http://www.w3.org/1999/xlink" width="79.238" height="79.6" viewBox="0 0 79.238 79.6"><defs><style>.a{fill:#fff;}.b{fill:#f7cf43;}.c{filter:url(#a);}</style><filter id="a" x="0" y="0" width="79.238" height="79.6" filterUnits="userSpaceOnUse"><feOffset dx="2" dy="2" input="SourceAlpha"/><feGaussianBlur stdDeviation="4" result="b"/><feFlood flood-color="#7fd1d8" flood-opacity="0.4"/><feComposite operator="in" in2="b"/><feComposite in="SourceGraphic"/></filter></defs><g transform="translate(-780.447 -168.641)"><g transform="translate(845.685 178.641) rotate(90)"><g transform="translate(0 0)"><g class="c" transform="matrix(0, -1, 1, 0, -10, 65.24)"><path class="a" d="M.4,27.291s5.065,27.947,28.7,27.947,31.321-25.321,23.632-39.95S22.9-4.03,9.963,3.659.4,27.291.4,27.291Z" transform="translate(65.24 10) rotate(90)"/></g></g></g><g transform="translate(2141.722 438.078)"><path class="b" d="M-1332.691-44.722c.054-.15.112-.3.162-.45q.783-2.34,1.566-4.681a.43.43,0,0,1,.1-.161q1.55-1.556,3.1-3.108c.305-.305.616-.6.921-.91q2.874-2.878,5.747-5.758a.7.7,0,0,0,.061-.079l3.534,3.534a.236.236,0,0,0-.073.039q-1.057,1.053-2.111,2.109-3.836,3.836-7.673,7.67a.47.47,0,0,1-.178.107q-2.524.847-5.05,1.689a.574.574,0,0,0-.072.036Z" transform="translate(0 -177.958)"/><path class="b" d="M-634.26-237.511c-.014.057-.028.113-.043.17a1.267,1.267,0,0,1-.325.574q-.893.9-1.788,1.788a.347.347,0,0,1-.029.024l-3.509-3.508c.1-.1.213-.205.32-.312.481-.48.962-.959,1.44-1.441a1.357,1.357,0,0,1,.76-.411.226.226,0,0,0,.043-.016h.334c.032.009.064.02.1.027a1.258,1.258,0,0,1,.642.345q.842.839,1.681,1.681a1.284,1.284,0,0,1,.358.676c0,.024.014.047.021.07Z" transform="translate(-680.431)"/></g></g></svg>